<?xml version="1.0" encoding="UTF-8"?>
<svg id="Capa_1" xmlns="http://www.w3.org/2000/svg" version="1.1" viewBox="0 0 410.66 410.66">
  <!-- Generator: Adobe Illustrator 30.6.0, SVG Export Plug-In . SVG Version: 2.1.4 Build 109)  -->
  <defs>
    <style>
      .st0 {
        fill: #edb53b;
      }

      .st1 {
        fill: #1a1a1a;
      }
    </style>
  </defs>
  <rect class="st1" width="410.66" height="410.66"/>
  <g>
    <path class="st0" d="M376.81,244.82c.15-2.82-1.86-5.29-4.94-5.71l-37.12.03.03-28.45,37.12-.03c2.8-.12,4.86-2.74,4.94-5.13.09-2.77-1.97-5.13-4.91-5.42l-37.19-.07.03-28.51,37.62.04c2.64-.69,4.38-2.8,4.41-5.29.03-2.18-1.45-4.47-3.78-5.24h-38.27s0-28.77,0-28.77h37.66c2.75-.61,4.41-2.73,4.4-5.29-.01-2.1-1.61-5.18-4.38-5.19l-37.67-.05-.18-13.05c-1.93-18.8-17.45-32.78-36.21-32.8h-9.46s-.05-37.64-.05-37.64c0-2.48-2.73-4.13-4.69-4.39-2.3-.31-4.3,1.3-5.75,3.51v38.51s-28.76,0-28.76,0v-38.12c-.83-2.68-3.22-4.08-5.77-3.86-2.29.19-4.27,1.81-4.7,4.46v37.53s-28.56-.01-28.56-.01v-36.52c-.13-3.23-2.45-5.46-5.5-5.49-2.51-.03-4.87,2.17-5.26,5.05v36.97s-28.53,0-28.53,0v-37.11c-.18-2.92-2.72-4.94-5.46-4.9-2.47.03-4.85,2.22-5.13,5.05l-.02,36.98-28.49-.05.09-37.35c-.78-3.17-3.57-4.98-6.18-4.57-3.46.54-4.48,3.27-4.48,6.54v35.41s-10.34.1-10.34.1c-17.88.17-32.89,13.67-35.15,31.57-.59,4.7-.06,9.41-.22,14.21l-37.5.05c-3.14,0-4.86,3.17-4.59,5.69.27,2.53,2.12,4.65,5.05,4.79h37.05s.01,28.76.01,28.76h-38.16c-2.81.71-4.22,3.1-3.96,5.78.22,2.27,1.89,4.24,4.54,4.74l37.57-.03v28.4s-36.48.02-36.48.02c-3.23-.03-5.5,2.27-5.67,5.06-.17,2.78,1.52,5.35,4.53,5.68l37.64-.03v28.47s-35.96-.02-35.96-.02c-3.43-.52-6.01,2.1-6.19,5.14-.18,3.02,1.83,5.27,5.19,5.78l36.95-.02v28.44s-37.51-.03-37.51-.03c-2.84.42-4.57,2.59-4.6,5.21-.02,1.92,1.22,5.31,3.97,5.32l38.13.12c.17,5.01-.36,9.44.21,14.07,1.94,15.72,13.78,28.37,29.38,31.2,5.25.95,10.27.12,16.02.41l.1,37.83c0,2.84,2.28,4.14,4.58,4.26,3.45.18,5.78-1.75,6.08-5.21l-.03-36.91,28.46.03.02,37.03c.08,3.1,2.52,4.89,5.13,5.04,2.71.16,4.83-1.59,5.46-4.49v-37.6s28.54-.01,28.54-.01l-.02,36.45c.1,3.25,2.39,5.71,5.27,5.67,3.03-.04,5.53-2.3,5.49-5.59l-.02-36.52,29.09.03v37.06c.04,1.85,1,2.67,2.23,3.88,1.11,1.1,3.4,1.44,4.79.72,1-.52,2.93-2.23,2.93-3.53l.02-38.16,28.74.02.07,37.87c0,2.98,3.66,4.45,5.7,4.22,2.01-.22,4.71-1.89,4.71-4.47l.02-37.62,14.27-.23c17.8-2.33,31.6-17.22,31.57-35.12l-.02-10.31,37.2-.06c2.92,0,4.88-2.9,4.85-5.34-.03-2.42-1.76-4.66-4.39-5.21l-37.59-.02-.03-28.41h36.54c3.11-.15,5.36-2.4,5.51-5.21ZM147.5,247.72c-13.11,3.93-20.29,17.87-15.56,31.32,3,8.52,11.2,14.48,20.3,15.31,12.14,1.11,22.6-6.64,25.42-18.37l12.02.15,6.21,6.11,9.94,9.53,1.9,2.58,49.28.02,14.49-14.4,52.6-.03.03,18.39c.02,12.6-9.86,25.61-23.97,25.63l-188.64.27c-4.38,0-7.45-1.46-11.39-3.35-7.01-3.38-13.4-11.31-13.42-20.09l-.25-112.86h30.58s19.97,19.53,19.97,19.53l31.17.05c2.75,11.69,13.26,19.26,24.66,18.59,11.6-.69,20.92-9.48,22.37-20.77,1.51-11.75-5.82-23.03-17.48-26.01-8.03-2.05-16.67-.48-22.25,5.37l-1.65,1.74c-2.24,2.35-5.17,7.02-5.58,10.57l-27.23-.06-7.59-7.71-4.56-4.73-7.15-7.43h-35.24s-.02-18.42-.02-18.42h40.89s26.62-26.58,26.62-26.58l53.67-.04c3.05,12.12,14.26,19.7,26.05,18.27,12.2-1.48,21.2-11.55,21.14-23.82-.05-11.93-8.99-22.34-21.22-23.7-11.75-1.3-23.25,6.35-25.97,18.42h-58.11s-26.93,26.83-26.93,26.83l-36.17-.05.29-37.67c.11-14.23,12.72-23.79,26.36-23.79l184.1-.02c14.51,0,26.87,10.39,26.89,25.49l.08,93.8-56.48.07-18.56,18.59c-10.58-6.68-24.06-4.24-31.64,5.21-7.51,9.36-6.84,22.79,1.52,31.5,8.28,8.62,22.08,9.72,31.6,2.38,9.51-7.33,12.46-20.51,6.05-31.28l15.79-15.92h51.74s0,53.1,0,53.1h-57.16s-14.52,14.44-14.52,14.44l-40.2-.05-18.48-18.5-16.11-.13c-3.22-13.8-17.14-21.39-30.2-17.48ZM167.6,270.61c0,7.3-5.92,13.22-13.22,13.22s-13.22-5.92-13.22-13.22,5.92-13.22,13.22-13.22,13.22,5.92,13.22,13.22ZM178.28,202.28c0-7.28,5.91-13.19,13.19-13.19s13.19,5.91,13.19,13.19-5.91,13.19-13.19,13.19-13.19-5.91-13.19-13.19ZM217.76,126.56c0-7.28,5.9-13.17,13.17-13.17s13.17,5.9,13.17,13.17-5.9,13.17-13.17,13.17-13.17-5.9-13.17-13.17ZM249.38,244.54c0,7.3-5.92,13.22-13.22,13.22s-13.22-5.92-13.22-13.22,5.92-13.22,13.22-13.22,13.22,5.92,13.22,13.22Z"/>
    <path class="st0" d="M106.54,285.96l-.24-66.74c0-2.65-3.82-3.82-5.62-3.58-2.1.28-4.66,1.89-4.66,4.67l.02,65.73c0,15.7,13.04,28.53,28.55,28.57l24.35.07c3.32,0,5.29-3.01,5.13-5.67-.18-3.07-2.37-4.92-5.88-4.92l-23.53-.06c-9.74-.02-18.08-8.01-18.12-18.07Z"/>
    <path class="st0" d="M262.36,104.6l22.16-.04c5.74,0,10.54,1.63,14.76,6.04,2.07,2.16,4.58,6.47,4.59,10.07l.15,54.04c0,2.91,3.51,4.73,5.45,4.45,2.91-.41,4.91-2.28,4.91-5.77l-.07-51.49c0-3.8-1.93-10.72-4.09-13.62l-3.81-5.1c-2.73-3.66-12.26-8.48-16.72-8.77-9.23-.6-18.3-.24-27.87-.27-1.28,0-3.33,1.49-3.9,2.49-.55.95-.47,2.92-.26,4.41.26,1.83,2.66,3.55,4.71,3.55Z"/>
  </g>
</svg>